<svg version="1.1" xmlns="http://www.w3.org/2000/svg" style="display: block;" viewBox="0 0 2048 2048" width="1024" height="1024">
<defs>
	<linearGradient id="Gradient1" gradientUnits="userSpaceOnUse" x1="415.979" y1="1116.68" x2="1795.21" y2="1444.43">
		<stop class="stop0" offset="0" stop-opacity="1" stop-color="rgb(141,111,93)"/>
		<stop class="stop1" offset="1" stop-opacity="1" stop-color="rgb(143,150,117)"/>
	</linearGradient>
</defs>
<path transform="translate(0,0)" fill="url(#Gradient1)" d="M 393.148 2048 L -0 2048 L -0 -0 L 469.979 0 L 473.954 0 L 1543.91 0 L 1570.94 0 L 2048 0 L 2048 2048 L 1653.12 2048 L 1462.33 2048 L 998.018 2048 L 575.338 2048 L 393.148 2048 z"/>
<path transform="translate(0,0)" fill="rgb(121,125,98)" d="M 287.751 1628.31 L 290.823 1628.87 L 293.232 1629.54 C 293.749 1633.38 294.03 1636.35 293.36 1640.14 L 291.477 1650.22 L 290.252 1650.97 C 288.81 1651.87 289.309 1651.44 288.489 1652.27 C 288.214 1650.77 287.997 1649.5 288.328 1647.98 C 289.802 1641.24 289.137 1635.01 287.751 1628.31 z"/>
<path transform="translate(0,0)" fill="rgb(28,28,28)" d="M 1369.64 1219.37 C 1388.19 1218.28 1409.19 1221.97 1424.53 1233.11 C 1443.7 1247.01 1457.22 1264.22 1461.75 1288 C 1465.17 1305.9 1463.45 1320.36 1457.53 1337.56 C 1455.63 1343.09 1453.98 1348.64 1450.61 1353.48 C 1434.18 1377.06 1414.28 1388.08 1386.34 1393.29 C 1364.6 1395.07 1343.64 1390.32 1325.8 1377.45 C 1308.3 1364.83 1293.97 1343.53 1290.71 1321.91 C 1286.96 1297.08 1292.11 1272.72 1307.6 1252.67 C 1322.65 1233.18 1345.63 1222.15 1369.64 1219.37 z"/>
<path transform="translate(0,0)" fill="rgb(254,254,254)" d="M 1227.39 604.356 C 1242.2 606.918 1257.86 613.931 1271.82 619.596 C 1278.75 622.408 1285.97 625.939 1293.38 627.188 C 1297.4 631.815 1303.26 634.183 1308.65 636.887 L 1331.06 648.244 L 1356.7 662.775 C 1363.44 666.713 1369.58 671.499 1376.16 675.674 C 1381.6 679.124 1387.74 681.615 1392.87 685.521 L 1415.07 703.337 C 1417 704.753 1419.47 707.202 1421.73 707.76 L 1446.07 728.391 C 1490.65 762.295 1529.66 803.299 1564.62 846.823 C 1655.12 959.482 1717.12 1097.55 1736.61 1241.22 C 1739.67 1263.81 1742.76 1286.54 1744.12 1309.31 L 1745.36 1413.36 L 1745.15 1518.78 L 1745.43 1629.11 L 1610.23 1627.3 L 1610.06 1435.57 C 1610.27 1390.3 1611.23 1344.96 1608.05 1299.76 C 1606.12 1272.2 1602.03 1244.39 1596.9 1217.26 C 1563.79 1042.13 1475.5 885.363 1340.64 768.586 C 1312.38 744.11 1281.83 722.155 1250.98 701.082 C 1249.29 701.25 1248.22 701.679 1246.69 700.96 C 1245.22 700.27 1244.07 700.423 1242.5 700.49 L 1241 699.49 C 1238.87 699.49 1238.89 699.751 1237 698.49 C 1234.66 698.49 1235.12 698.562 1233 697.49 L 1232.1 697.274 C 1230.58 696.898 1229.37 696.209 1228 695.49 L 1226.49 695.721 C 1226.53 702.515 1227.26 710.199 1224.94 716.625 C 1224.26 709.397 1225.28 700.966 1223.55 693.99 L 1223.16 692.5 L 1224 691.832 L 1225.77 691.5 C 1226.71 679.399 1225.8 667.236 1226.11 655.111 L 1227.5 627.857 C 1228.1 620.091 1229.52 611.963 1227.39 604.356 z"/>
<path transform="translate(0,0)" fill="rgb(155,155,122)" d="M 1227.39 604.356 C 1242.2 606.918 1257.86 613.931 1271.82 619.596 C 1278.75 622.408 1285.97 625.939 1293.38 627.188 C 1297.4 631.815 1303.26 634.183 1308.65 636.887 L 1331.06 648.244 L 1356.7 662.775 C 1363.44 666.713 1369.58 671.499 1376.16 675.674 C 1381.6 679.124 1387.74 681.615 1392.87 685.521 L 1415.07 703.337 C 1417 704.753 1419.47 707.202 1421.73 707.76 L 1446.07 728.391 C 1437.31 726.688 1428.77 723.951 1419.94 722.63 L 1384.68 718.592 L 1275.09 704.301 C 1268.73 703.545 1256.5 699.568 1250.98 701.082 C 1249.29 701.25 1248.22 701.679 1246.69 700.96 C 1245.22 700.27 1244.07 700.423 1242.5 700.49 L 1241 699.49 C 1238.87 699.49 1238.89 699.751 1237 698.49 C 1234.66 698.49 1235.12 698.562 1233 697.49 L 1232.1 697.274 C 1230.58 696.898 1229.37 696.209 1228 695.49 L 1226.49 695.721 C 1226.53 702.515 1227.26 710.199 1224.94 716.625 C 1224.26 709.397 1225.28 700.966 1223.55 693.99 L 1223.16 692.5 L 1224 691.832 L 1225.77 691.5 C 1226.71 679.399 1225.8 667.236 1226.11 655.111 L 1227.5 627.857 C 1228.1 620.091 1229.52 611.963 1227.39 604.356 z"/>
<path transform="translate(0,0)" fill="rgb(121,125,98)" d="M 999.522 1703.66 C 1013.87 1700.41 1031.44 1703.71 1046.16 1703.85 L 1082.89 1703 L 1125.06 1703.59 L 1491 1703.81 L 1680.57 1704.21 L 1720.84 1703.35 C 1725.98 1703.39 1730.58 1703.38 1735.57 1704.81 C 1731.22 1722.45 1731.08 1742.65 1725.48 1759.68 C 1720.29 1770.9 1719.84 1786.78 1718.03 1799.06 L 1711.92 1832.81 L 1703.76 1869.15 C 1701.9 1876.76 1698.06 1885.58 1699.23 1893.45 C 1698.85 1895.42 1696.79 1908.01 1695.74 1908.84 C 1682.36 1954.97 1676.05 2005.22 1653.12 2048 L 1462.33 2048 L 998.018 2048 L 996.884 1956 L 997.077 1924.4 C 997.116 1919.42 998.061 1913.38 995.684 1908.95 L 997.751 1907.92 C 998.846 1906.23 999.078 1904.97 999.219 1903 C 1001.23 1874.81 999.561 1845.69 999.62 1817.39 L 999.522 1703.66 z"/>
<path transform="translate(0,0)" fill="rgb(248,212,136)" d="M 1496.7 1907.7 L 1650.22 1908.09 L 1681.06 1908.07 C 1685.41 1908.04 1691.78 1907.14 1695.74 1908.84 C 1682.36 1954.97 1676.05 2005.22 1653.12 2048 L 1462.33 2048 C 1472.59 2020.48 1481.44 1991.34 1486.96 1962.45 C 1490.42 1944.29 1491.7 1925.51 1496.7 1907.7 z"/>
<path transform="translate(0,0)" fill="rgb(208,140,96)" d="M 997.751 1907.92 L 1496.7 1907.7 C 1491.7 1925.51 1490.42 1944.29 1486.96 1962.45 C 1481.44 1991.34 1472.59 2020.48 1462.33 2048 L 998.018 2048 L 996.884 1956 L 997.077 1924.4 C 997.116 1919.42 998.061 1913.38 995.684 1908.95 L 997.751 1907.92 z"/>
<path transform="translate(0,0)" fill="rgb(248,212,136)" d="M 992.927 569.878 L 993.108 576.173 L 993.01 576.948 C 999.72 578.768 1008.16 577.322 1015.15 577.244 L 1083.5 577.056 C 1091.31 577.148 1101.01 575.985 1108.53 577.861 C 1115.21 578.296 1121.83 578.9 1128.5 578.262 L 1186.89 592.696 C 1200.32 596.208 1214.42 599.437 1227.39 604.356 C 1229.52 611.963 1228.1 620.091 1227.5 627.857 L 1226.11 655.111 C 1225.8 667.236 1226.71 679.399 1225.77 691.5 L 1224 691.832 L 1223.16 692.5 L 1223.55 693.99 C 1225.28 700.966 1224.26 709.397 1224.94 716.625 L 1224.16 1628.82 L 1109.58 1629.24 C 1104.85 1630.47 1099.16 1629.79 1094.29 1629.73 L 1062 1629.23 L 923.549 1629.92 C 902.947 1629.87 880.816 1631.56 860.481 1629.23 L 787.422 1628.98 L 787.193 1069.68 L 786.998 1067.68 L 785.099 600.646 L 870.506 577.106 L 873.137 571.58 C 891.914 568.379 911.066 570.231 930 570.177 L 992.927 569.878 z"/>
<path transform="translate(0,0)" fill="rgb(228,176,116)" d="M 992.927 569.878 L 993.108 576.173 L 993.01 576.948 C 986.236 574.878 975.804 576.155 968.628 576.179 L 898.131 577.67 L 870.506 577.106 L 873.137 571.58 C 891.914 568.379 911.066 570.231 930 570.177 L 992.927 569.878 z"/>
<path transform="translate(0,0)" fill="rgb(28,28,28)" d="M 933.431 1503.9 L 922.536 1498.8 C 890.402 1481.15 872.184 1450.2 862.12 1416.09 L 885.253 1439.7 C 913.441 1465.79 950.054 1487.52 987.804 1495.74 C 999.567 1496.56 1011.2 1494.29 1022.58 1491.68 C 1051.96 1484.93 1083.15 1471.54 1108.28 1454.91 C 1123.21 1445.62 1136.61 1435.89 1149.12 1423.51 C 1142.36 1437.47 1135.59 1451.78 1126.09 1464.12 C 1121.08 1470.63 1114.44 1476.46 1108.59 1482.25 C 1077.33 1509.34 1029.16 1521.92 988.433 1518.84 C 970.157 1517.46 949.532 1512.99 933.431 1503.9 z"/>
<path transform="translate(0,0)" fill="rgb(208,140,96)" d="M 1108.59 1482.25 L 1108.94 1534.48 L 1108.75 1586.5 L 1107.92 1616.81 C 1107.94 1621.14 1107.48 1625.32 1109.58 1629.24 C 1104.85 1630.47 1099.16 1629.79 1094.29 1629.73 L 1062 1629.23 L 923.549 1629.92 C 902.947 1629.87 880.816 1631.56 860.481 1629.23 C 875.385 1628.49 890.97 1630.6 905.739 1628.79 L 929.233 1558.89 C 929.566 1557.56 929.939 1556.45 930.485 1555.19 L 932.5 1556.77 L 933.431 1503.9 C 949.532 1512.99 970.157 1517.46 988.433 1518.84 C 1029.16 1521.92 1077.33 1509.34 1108.59 1482.25 z"/>
<path transform="translate(0,0)" fill="rgb(208,140,96)" d="M 993.01 576.948 C 999.72 578.768 1008.16 577.322 1015.15 577.244 L 1083.5 577.056 C 1091.31 577.148 1101.01 575.985 1108.53 577.861 C 1107.06 585.981 1107.87 594.242 1108.03 602.447 L 1108.14 632.869 L 1108.15 765.568 L 1108.18 1235.09 L 1108.22 1409.93 L 1107.76 1439.7 C 1107.63 1443 1106.4 1449.45 1107.02 1452.48 C 1107.2 1453.38 1107.86 1454.1 1108.28 1454.91 C 1083.15 1471.54 1051.96 1484.93 1022.58 1491.68 C 1011.2 1494.29 999.567 1496.56 987.804 1495.74 C 989.647 1495.31 990.459 1495.06 992.093 1494 L 993.01 576.948 z"/>
<path transform="translate(0,0)" fill="rgb(217,174,148)" d="M 1128.5 578.262 L 1186.89 592.696 C 1200.32 596.208 1214.42 599.437 1227.39 604.356 C 1229.52 611.963 1228.1 620.091 1227.5 627.857 L 1226.11 655.111 C 1225.8 667.236 1226.71 679.399 1225.77 691.5 L 1224 691.832 L 1223.16 692.5 L 1223.55 693.99 C 1225.28 700.966 1224.26 709.397 1224.94 716.625 L 1224.16 1628.82 L 1109.58 1629.24 C 1107.48 1625.32 1107.94 1621.14 1107.92 1616.81 L 1108.75 1586.5 L 1108.94 1534.48 L 1108.59 1482.25 C 1114.44 1476.46 1121.08 1470.63 1126.09 1464.12 C 1135.59 1451.78 1142.36 1437.47 1149.12 1423.51 C 1136.61 1435.89 1123.21 1445.62 1108.28 1454.91 C 1107.86 1454.1 1107.2 1453.38 1107.02 1452.48 C 1106.4 1449.45 1107.63 1443 1107.76 1439.7 L 1108.22 1409.93 L 1108.18 1235.09 L 1108.15 765.568 L 1108.14 632.869 L 1108.03 602.447 C 1107.87 594.242 1107.06 585.981 1108.53 577.861 C 1115.21 578.296 1121.83 578.9 1128.5 578.262 z"/>
<path transform="translate(0,0)" fill="rgb(28,28,28)" d="M 1543.91 0 L 1570.94 0 L 2048 0 L 2048 2048 L 1653.12 2048 C 1676.05 2005.22 1682.36 1954.97 1695.74 1908.84 C 1696.79 1908.01 1698.85 1895.42 1699.23 1893.45 C 1698.06 1885.58 1701.9 1876.76 1703.76 1869.15 L 1711.92 1832.81 L 1718.03 1799.06 C 1719.84 1786.78 1720.29 1770.9 1725.48 1759.68 C 1731.08 1742.65 1731.22 1722.45 1735.57 1704.81 C 1738.27 1691.29 1740.94 1677.44 1742.58 1663.75 C 1743.53 1655.85 1743.14 1646.02 1745.19 1638.5 C 1745.62 1636.91 1746.34 1636.02 1747.32 1634.73 C 1744.14 1628.28 1746.11 1614.52 1746.1 1607.18 L 1745.94 1553.24 C 1745.92 1541.91 1746.56 1530 1745.15 1518.78 L 1745.36 1413.36 L 1744.12 1309.31 C 1742.76 1286.54 1739.67 1263.81 1736.61 1241.22 C 1717.12 1097.55 1655.12 959.482 1564.62 846.823 C 1529.66 803.299 1490.65 762.295 1446.07 728.391 L 1421.73 707.76 C 1419.47 707.202 1417 704.753 1415.07 703.337 L 1392.87 685.521 C 1387.74 681.615 1381.6 679.124 1376.16 675.674 C 1369.58 671.499 1363.44 666.713 1356.7 662.775 L 1331.06 648.244 L 1308.65 636.887 C 1303.26 634.183 1297.4 631.815 1293.38 627.188 C 1297.56 617.53 1300.7 607.501 1304.39 597.662 L 1338.78 502.299 L 1417.33 287.367 L 1455.31 188.827 L 1491 98.3905 L 1506.87 59 C 1510.03 51.1845 1512.94 42.7105 1517.22 35.4278 C 1522.27 26.8498 1531.17 18.7807 1537.62 11.0032 L 1543.91 0 z"/>
<path transform="translate(0,0)" fill="rgb(153,123,102)" d="M 1699.23 1893.45 C 1698.06 1885.58 1701.9 1876.76 1703.76 1869.15 L 1711.92 1832.81 L 1718.03 1799.06 C 1719.84 1786.78 1720.29 1770.9 1725.48 1759.68 C 1735.6 1774.41 1750.73 1787.01 1763.34 1799.7 L 1815.85 1853.79 L 1878.78 1919.2 C 1884.83 1925.43 1891.56 1935.65 1899 1939.77 C 1881.62 1959.1 1861.44 1976.35 1841.98 1993.53 C 1836.64 1998.25 1830.35 2005.47 1824.09 2008.54 L 1699.23 1893.45 z"/>
<path transform="translate(0,0)" fill="rgb(241,220,167)" d="M 1735.57 1704.81 C 1738.27 1691.29 1740.94 1677.44 1742.58 1663.75 C 1743.53 1655.85 1743.14 1646.02 1745.19 1638.5 C 1745.62 1636.91 1746.34 1636.02 1747.32 1634.73 C 1757.4 1651.66 1772.22 1665.85 1785.58 1680.31 L 1833.72 1732.5 L 1926.43 1833.48 C 1939.34 1847.47 1951.9 1863.28 1965.87 1876.13 L 1899 1939.77 C 1891.56 1935.65 1884.83 1925.43 1878.78 1919.2 L 1815.85 1853.79 L 1763.34 1799.7 C 1750.73 1787.01 1735.6 1774.41 1725.48 1759.68 C 1731.08 1742.65 1731.22 1722.45 1735.57 1704.81 z"/>
<path transform="translate(0,0)" fill="rgb(208,140,96)" d="M 1543.91 0 L 1570.94 0 L 1570.87 1.33611 C 1570.01 21.2236 1571.84 41.8003 1572.22 61.7717 L 1573.15 139.102 L 1575.22 208.963 C 1575.45 227.145 1578.02 247.194 1575.96 265.223 C 1575.36 270.428 1572.41 276.245 1570.53 281.199 L 1558.33 313.166 L 1541.32 359.48 L 1463.28 588.736 L 1435.3 667.441 C 1430.6 680.779 1425.24 694.033 1421.73 707.76 C 1419.47 707.202 1417 704.753 1415.07 703.337 L 1392.87 685.521 C 1387.74 681.615 1381.6 679.124 1376.16 675.674 C 1369.58 671.499 1363.44 666.713 1356.7 662.775 L 1331.06 648.244 L 1308.65 636.887 C 1303.26 634.183 1297.4 631.815 1293.38 627.188 C 1297.56 617.53 1300.7 607.501 1304.39 597.662 L 1338.78 502.299 L 1417.33 287.367 L 1455.31 188.827 L 1491 98.3905 L 1506.87 59 C 1510.03 51.1845 1512.94 42.7105 1517.22 35.4278 C 1522.27 26.8498 1531.17 18.7807 1537.62 11.0032 L 1543.91 0 z"/>
<path transform="translate(0,0)" fill="rgb(248,212,136)" d="M 1537.62 11.0032 C 1539.51 13.1295 1539.54 12.8481 1539.37 15.653 C 1538.81 24.858 1537.12 33.6066 1536.11 42.7136 L 1527.49 109.764 C 1526.42 116.513 1524.23 122.95 1523.28 129.73 L 1508.61 232.227 C 1507.04 240.571 1506.3 248.872 1504.24 257.156 C 1501.56 267.902 1497.31 277.702 1493.65 288.079 L 1475.05 341.767 C 1470.41 353.874 1464.59 365.445 1460.25 377.721 L 1451.22 406.079 L 1422.39 487.339 L 1413.1 515.787 L 1402.44 541.772 L 1385.44 591.609 C 1383.47 596.697 1380.51 601.346 1378.45 606.415 C 1370.78 625.324 1366.38 644.475 1356.7 662.775 L 1331.06 648.244 L 1308.65 636.887 C 1303.26 634.183 1297.4 631.815 1293.38 627.188 C 1297.56 617.53 1300.7 607.501 1304.39 597.662 L 1338.78 502.299 L 1417.33 287.367 L 1455.31 188.827 L 1491 98.3905 L 1506.87 59 C 1510.03 51.1845 1512.94 42.7105 1517.22 35.4278 C 1522.27 26.8498 1531.17 18.7807 1537.62 11.0032 z"/>
<path transform="translate(0,0)" fill="rgb(28,28,28)" d="M 393.148 2048 L -0 2048 L -0 -0 L 469.979 0 L 473.954 0 L 1543.91 0 L 1537.62 11.0032 C 1531.17 18.7807 1522.27 26.8498 1517.22 35.4278 C 1512.94 42.7105 1510.03 51.1845 1506.87 59 L 1491 98.3905 L 1455.31 188.827 L 1417.33 287.367 L 1338.78 502.299 L 1304.39 597.662 C 1300.7 607.501 1297.56 617.53 1293.38 627.188 C 1285.97 625.939 1278.75 622.408 1271.82 619.596 C 1257.86 613.931 1242.2 606.918 1227.39 604.356 C 1214.42 599.437 1200.32 596.208 1186.89 592.696 L 1128.5 578.262 C 1121.83 578.9 1115.21 578.296 1108.53 577.861 C 1101.01 575.985 1091.31 577.148 1083.5 577.056 L 1015.15 577.244 C 1008.16 577.322 999.72 578.768 993.01 576.948 L 993.108 576.173 L 992.927 569.878 L 930 570.177 C 911.066 570.231 891.914 568.379 873.137 571.58 L 870.506 577.106 L 785.099 600.646 L 786.998 1067.68 C 785.67 1065.36 785.382 1062.58 784.873 1059.98 L 783.966 1628.94 L 594.235 1627.87 L 399.796 1627.95 C 384.891 1627.92 296.713 1625.68 290.823 1628.87 L 287.751 1628.31 C 289.137 1635.01 289.802 1641.24 288.328 1647.98 C 287.997 1649.5 288.214 1650.77 288.489 1652.27 L 288.951 1654.26 C 296.993 1669.81 295.688 1690.78 300.421 1707.72 L 301.089 1706.47 C 301.183 1706.36 302.779 1705.21 303 1705.14 C 307.493 1703.67 318.025 1705.03 323.072 1705 L 398.471 1704.55 L 566 1704.93 L 619.002 1704.09 L 795.549 1704.04 L 928.633 1704.03 C 952.123 1704.03 976.083 1705.18 999.522 1703.66 L 999.62 1817.39 C 999.561 1845.69 1001.23 1874.81 999.219 1903 C 999.078 1904.97 998.846 1906.23 997.751 1907.92 L 995.684 1908.95 C 998.061 1913.38 997.116 1919.42 997.077 1924.4 L 996.884 1956 L 998.018 2048 L 575.338 2048 L 393.148 2048 z"/>
<path transform="translate(0,0)" fill="rgb(153,123,102)" d="M 312.805 1774.19 L 339.783 1903.3 L 262.162 1975.68 L 240.939 1994.83 C 235.504 1999.4 229.61 2003.44 225.181 2009.06 L 152.23 1941.27 L 152.916 1940.83 C 159.555 1936.18 164.744 1929.28 170.399 1923.5 L 201.225 1892.19 L 255.418 1836.3 L 308.036 1782.2 C 310.353 1779.61 312.214 1777.73 312.805 1774.19 z"/>
<path transform="translate(0,0)" fill="rgb(241,220,167)" d="M 288.951 1654.26 C 296.993 1669.81 295.688 1690.78 300.421 1707.72 C 304.021 1729.4 306.527 1753.11 312.805 1774.19 C 312.214 1777.73 310.353 1779.61 308.036 1782.2 L 255.418 1836.3 L 201.225 1892.19 L 170.399 1923.5 C 164.744 1929.28 159.555 1936.18 152.916 1940.83 L 152.23 1941.27 L 85.1399 1876.57 C 89.5506 1870.48 95.2984 1865.34 100.5 1859.93 L 119.661 1839.36 L 188.634 1765.12 L 243.298 1705.68 L 288.951 1654.26 z"/>
<path transform="translate(0,0)" fill="rgb(180,84,63)" d="M 393.148 2048 C 384.696 2037.42 379.209 2024.56 374.184 2012.09 C 367.029 1994.33 360.718 1976.43 355.994 1957.85 C 351.754 1941.18 348.746 1923.97 343.526 1907.58 L 535.368 1908.1 C 541.667 1939.42 547.756 1969.88 556.99 2000.5 C 561.919 2016.84 567.259 2032.88 575.338 2048 L 393.148 2048 z"/>
<path transform="translate(0,0)" fill="rgb(248,212,136)" d="M 535.368 1908.1 L 867.123 1908.09 L 950.024 1907.99 C 964.814 1907.96 981.131 1906.57 995.684 1908.95 C 998.061 1913.38 997.116 1919.42 997.077 1924.4 L 996.884 1956 L 998.018 2048 L 575.338 2048 C 567.259 2032.88 561.919 2016.84 556.99 2000.5 C 547.756 1969.88 541.667 1939.42 535.368 1908.1 z"/>
<path transform="translate(0,0)" fill="rgb(248,212,136)" d="M 469.979 0 L 473.954 0 L 487.316 15.0931 L 515.728 48.266 C 520.83 54.3445 527.257 60.6037 530.814 67.7045 C 538.413 82.876 543.524 100.594 549.145 116.642 L 575.11 186.792 L 646.039 375 L 674.5 456.035 L 709.816 554.816 L 732.236 618.58 C 726.928 620.205 722.327 623.049 717.247 625.204 C 703.399 631.079 691.248 638.15 678 645.047 C 673.239 647.525 668.198 649.473 663.5 652.052 C 662.325 650.888 662.048 650.937 661.714 649.236 C 660.373 654.394 657.402 655.167 652.908 657.808 L 631.21 670.275 L 604.22 688.443 C 601.992 689.847 598.294 692.941 595.726 693.001 L 568.511 608.179 L 518.676 462.109 L 483.785 355.863 L 464.371 300.375 L 455.824 277.427 C 454.324 273.374 452.37 269.296 451.983 264.943 C 451.066 254.642 452.491 243.794 453.222 233.5 L 456.177 193.086 L 469.979 0 z"/>
<path transform="translate(0,0)" fill="rgb(208,140,96)" d="M 487.316 15.0931 L 515.728 48.266 C 520.83 54.3445 527.257 60.6037 530.814 67.7045 C 538.413 82.876 543.524 100.594 549.145 116.642 L 575.11 186.792 L 646.039 375 L 674.5 456.035 L 709.816 554.816 L 732.236 618.58 C 726.928 620.205 722.327 623.049 717.247 625.204 C 703.399 631.079 691.248 638.15 678 645.047 C 673.239 647.525 668.198 649.473 663.5 652.052 C 662.325 650.888 662.048 650.937 661.714 649.236 C 654.391 621.514 643.935 595.042 635.056 567.842 L 615.18 502.054 L 584.45 417.094 L 570.79 372.328 L 545.176 299.676 C 540.944 287.651 536.029 275.452 532.5 263.216 C 529.612 253.203 528.882 242.648 527.263 232.385 L 517.005 166 L 500.517 77.4192 C 498.843 68.3195 498.256 59.0772 496.314 49.9921 L 487.316 15.0931 z"/>
<path transform="translate(0,0)" fill="rgb(228,176,116)" d="M 732.236 618.58 C 748.236 612.386 766.792 604.228 783.803 601.916 L 784.181 625.923 C 784.182 628.94 784.794 633.657 784.136 636.504 L 784.873 1059.98 L 783.966 1628.94 L 594.235 1627.87 L 399.796 1627.95 C 384.891 1627.92 296.713 1625.68 290.823 1628.87 L 287.751 1628.31 C 284.508 1619.2 284.939 1606.81 283.817 1597.09 C 275.334 1523.55 272.307 1450 273.068 1376 C 273.551 1329.09 275 1281.31 281.329 1234.79 C 295.083 1133.7 328.558 1032.04 378.186 942.886 C 409.726 886.23 449.816 833.28 493.958 785.836 C 514.077 764.211 535.824 744.369 558.269 725.202 C 570.81 714.492 583.918 704.549 595.726 693.001 C 598.294 692.941 601.992 689.847 604.22 688.443 L 631.21 670.275 L 652.908 657.808 C 657.402 655.167 660.373 654.394 661.714 649.236 C 662.048 650.937 662.325 650.888 663.5 652.052 C 668.198 649.473 673.239 647.525 678 645.047 C 691.248 638.15 703.399 631.079 717.247 625.204 C 722.327 623.049 726.928 620.205 732.236 618.58 z"/>
<path transform="translate(0,0)" fill="rgb(241,220,167)" d="M 594.235 1627.87 C 589.553 1614.1 589.425 1598.95 587.347 1584.65 C 581.579 1544.97 579.679 1505.39 577.407 1465.42 L 572.049 1305.03 L 577.988 1193 L 584.402 1136.44 L 593.471 1072.61 C 603.81 1018.76 620.047 965.297 640.046 914.319 L 658.322 869.26 L 725.783 735.268 L 742.839 702.762 L 769.967 659.221 C 774.431 651.847 777.677 642.162 784.136 636.504 L 784.873 1059.98 L 783.966 1628.94 L 594.235 1627.87 z"/>
<path transform="translate(0,0)" fill="rgb(28,28,28)" d="M 662.173 1223.27 C 681.923 1221.54 699.681 1223.51 717.062 1233.48 C 736.779 1244.77 751.19 1264.03 756.808 1286 C 762.89 1309.78 758.192 1333.55 745.61 1354.19 C 732.772 1375.25 712.434 1387.1 688.818 1392.67 C 667.089 1396.73 646.058 1391.14 627.678 1379.4 C 610.145 1368.21 597.257 1346.94 592.872 1326.83 C 587.786 1303.51 592.574 1279.32 605.733 1259.46 C 618.776 1239.77 639.587 1228.14 662.173 1223.27 z"/>
<path transform="translate(0,0)" fill="rgb(28,28,28)" d="M 473.954 0 L 1543.91 0 L 1537.62 11.0032 C 1531.17 18.7807 1522.27 26.8498 1517.22 35.4278 C 1512.94 42.7105 1510.03 51.1845 1506.87 59 L 1491 98.3905 L 1455.31 188.827 L 1417.33 287.367 L 1338.78 502.299 L 1304.39 597.662 C 1300.7 607.501 1297.56 617.53 1293.38 627.188 C 1285.97 625.939 1278.75 622.408 1271.82 619.596 C 1257.86 613.931 1242.2 606.918 1227.39 604.356 C 1214.42 599.437 1200.32 596.208 1186.89 592.696 L 1128.5 578.262 C 1121.83 578.9 1115.21 578.296 1108.53 577.861 C 1101.01 575.985 1091.31 577.148 1083.5 577.056 L 1015.15 577.244 C 1008.16 577.322 999.72 578.768 993.01 576.948 L 993.108 576.173 L 992.927 569.878 L 930 570.177 C 911.066 570.231 891.914 568.379 873.137 571.58 L 870.506 577.106 L 785.099 600.646 L 786.998 1067.68 C 785.67 1065.36 785.382 1062.58 784.873 1059.98 L 784.136 636.504 C 784.794 633.657 784.182 628.94 784.181 625.923 L 783.803 601.916 C 766.792 604.228 748.236 612.386 732.236 618.58 L 709.816 554.816 L 674.5 456.035 L 646.039 375 L 575.11 186.792 L 549.145 116.642 C 543.524 100.594 538.413 82.876 530.814 67.7045 C 527.257 60.6037 520.83 54.3445 515.728 48.266 L 487.316 15.0931 L 473.954 0 z"/>
<path transform="translate(0,0)" fill="rgb(248,212,136)" d="M 873.137 571.58 C 879.669 558.583 888.936 546.211 896.527 533.708 L 928.172 482.548 C 934.704 472.2 940.81 461.804 948.347 452.122 L 993.144 452.777 L 992.927 569.878 L 930 570.177 C 911.066 570.231 891.914 568.379 873.137 571.58 z"/>
<path transform="translate(0,0)" fill="rgb(208,140,96)" d="M 993.144 452.777 L 1030.5 452.649 C 1037.42 452.554 1045.33 451.454 1052.05 452.938 L 1121.95 570.97 L 1122.14 575 L 1128.5 578.262 C 1121.83 578.9 1115.21 578.296 1108.53 577.861 C 1101.01 575.985 1091.31 577.148 1083.5 577.056 L 1015.15 577.244 C 1008.16 577.322 999.72 578.768 993.01 576.948 L 993.108 576.173 L 992.927 569.878 L 993.144 452.777 z"/>
<path transform="translate(0,0)" fill="rgb(153,123,102)" d="M 1121.95 570.97 L 1122.14 575 L 1128.5 578.262 C 1121.83 578.9 1115.21 578.296 1108.53 577.861 C 1101.01 575.985 1091.31 577.148 1083.5 577.056 L 1015.15 577.244 C 1008.16 577.322 999.72 578.768 993.01 576.948 L 993.108 576.173 C 993.63 574.016 993.891 572.83 995.5 571.253 L 1121.95 570.97 z"/>
</svg>